<svg xmlns="http://www.w3.org/2000/svg" width="24" height="24" viewBox="0 0 24 24" focusable="false" aria-hidden="true">
    <path fill="#C560B3" fill-rule="evenodd" d="M12 24C5.373 24 0 18.627 0 12S5.373 0 12 0s12 5.373 12 12-5.373 12-12 12zm0-1.092c6.024 0 10.908-4.884 10.908-10.908 0-6.024-4.884-10.908-10.908-10.908C5.976 1.092 1.092 5.976 1.092 12c0 6.024 4.884 10.908 10.908 10.908zm-2.168-6.615a5.355 5.355 0 0 1-1.64-.257c-.538-.172-1-.421-1.388-.748l.502-.78c.406.309.811.54 1.217.694.405.155.833.232 1.282.232.503 0 .902-.1 1.197-.298a.954.954 0 0 0 .443-.84c0-.167-.04-.31-.119-.43a1.001 1.001 0 0 0-.357-.31 2.917 2.917 0 0 0-.608-.238 22.69 22.69 0 0 0-.86-.225 18.007 18.007 0 0 1-1.07-.304 2.902 2.902 0 0 1-.741-.344 1.204 1.204 0 0 1-.424-.476 1.594 1.594 0 0 1-.132-.688 2 2 0 0 1 .205-.919c.137-.269.324-.493.562-.674a2.53 2.53 0 0 1 .84-.41 3.74 3.74 0 0 1 1.038-.139c.52 0 1.005.084 1.455.251.45.168.828.388 1.137.662l-.529.7a2.97 2.97 0 0 0-.979-.575 3.308 3.308 0 0 0-1.11-.192c-.424 0-.783.09-1.078.272-.296.18-.443.469-.443.866 0 .158.028.29.086.396a.749.749 0 0 0 .284.278c.132.08.302.15.51.212.206.061.455.128.746.198.459.106.858.214 1.197.324.34.11.622.24.846.39.225.15.393.326.503.53.11.202.165.449.165.74 0 .643-.247 1.155-.74 1.534-.494.379-1.16.568-1.997.568zm4.14-9.786h1.163v7.869c0 .256.068.456.205.602.136.145.328.218.575.218.097 0 .212-.016.344-.046a2.81 2.81 0 0 0 .37-.113l.185.94c-.194.078-.423.145-.687.197-.265.053-.498.08-.701.08-.45 0-.805-.128-1.065-.384-.26-.255-.39-.612-.39-1.07V6.506z"/>
</svg>
