<svg xmlns="http://www.w3.org/2000/svg" viewBox="0 0 34 34" enable-background="new 0 0 34 34"><circle cx="17" cy="17" r="16" fill="#fff" stroke="#e76e45" stroke-width="2"/><path d="m16 12.5c-.1 0-.1 0-.2 0h-.3c-.6 0-1.3.2-1.8.6-.6.5-1 1-1.4 1.7v-2.2h-1.9v9.9h2.1v-6.1c.3-.6.7-1.2 1.4-1.5.7-.4 1.4-.5 2.2-.6l-.1-1.8m6.9 10c.5-.1.9-.3 1.3-.6.7-.5 1.1-1.4 1.1-2.2 0-.4-.1-.7-.2-1.1-.2-.3-.4-.6-.7-.8-.4-.2-.8-.4-1.2-.6-.5-.2-1.1-.3-1.8-.5-.4-.1-.8-.2-1-.3-.2-.1-.5-.2-.7-.3-.2-.1-.3-.2-.4-.4-.1-.2-.1-.3-.1-.5 0-.4.2-.8.6-1.1.4-.2.9-.3 1.4-.3 1.1 0 2.2.4 3.1 1.1l.9-1.3c-.6-.4-1.2-.7-1.8-.9-.7-.2-1.4-.3-2.1-.3-.5 0-1 .1-1.5.2-.4.1-.9.3-1.2.6-.3.3-.6.6-.8 1-.2.4-.3.9-.3 1.4 0 .3.1.7.2 1 .1.3.3.5.6.7.3.2.7.4 1.1.5.5.2 1.1.3 1.6.5.7.1 1.3.3 2 .6.4.1.6.5.6.9 0 .4-.2.8-.6 1-.5.3-1 .4-1.5.4-1.3 0-2.6-.5-3.6-1.3l-.9 1.4c.3.2.6.4 1 .6.4.2.8.3 1.1.4.8.2 1.6.4 2.5.4.2 0 .7-.1 1.3-.2" fill="#e76e45"/></svg>