<?xml version="1.0" encoding="UTF-8" standalone="no"?>
<!-- Created with Inkscape (http://www.inkscape.org/) -->

<svg
   width="8.9958305mm"
   height="8.9958344mm"
   viewBox="0 0 8.9958305 8.9958344"
   version="1.1"
   id="svg5"
   xml:space="preserve"
   xmlns="http://www.w3.org/2000/svg"
   xmlns:svg="http://www.w3.org/2000/svg"><defs
     id="defs2" /><g
     id="layer1"
     transform="translate(-56.084173,-102.62895)"><circle
       cx="60.582088"
       cy="107.12687"
       r="4.2333331"
       fill="#ffffff"
       stroke="#e76e45"
       stroke-width="0.529167"
       id="circle29"
       style="stroke:#969696;stroke-opacity:1" /><path
       id="text257"
       style="font-size:3.175px;fill:#969696;fill-opacity:1;stroke-width:0.496512"
       d="m 60.494809,104.92755 c -0.176031,0.003 -0.349838,0.0327 -0.520756,0.0873 -0.182314,0.0562 -0.352021,0.12509 -0.509119,0.20655 l 0.183282,0.42184 c 0.135765,-0.0659 0.27638,-0.12412 0.421843,-0.17454 0.14546,-0.0504 0.298683,-0.0757 0.459662,-0.0757 0.108611,0 0.203647,0.0155 0.285108,0.0465 0.0834,0.0291 0.152251,0.0718 0.206555,0.12802 0.05625,0.0543 0.09891,0.12025 0.128008,0.19783 0.02909,0.0756 0.04364,0.16 0.04364,0.2531 0,0.1028 -0.01067,0.19299 -0.032,0.27056 -0.01939,0.0756 -0.05043,0.14741 -0.0931,0.21529 -0.04073,0.0659 -0.09407,0.13188 -0.160009,0.19782 -0.06594,0.064 -0.145463,0.13578 -0.238559,0.21529 -0.09697,0.0815 -0.177465,0.16001 -0.241467,0.23566 -0.06401,0.0737 -0.115401,0.14934 -0.154192,0.22691 -0.03685,0.0776 -0.06303,0.16098 -0.07855,0.25019 -0.01358,0.0892 -0.02036,0.1891 -0.02036,0.29965 v 0.10766 h 0.404387 v -0.0524 c 0,-0.0854 0.0068,-0.16002 0.02036,-0.22401 0.01358,-0.064 0.03879,-0.12607 0.07564,-0.18619 0.03685,-0.0621 0.08728,-0.1251 0.151282,-0.18911 0.064,-0.0659 0.146432,-0.14254 0.247287,-0.22982 0.104732,-0.0912 0.195889,-0.17747 0.273469,-0.25893 0.07758,-0.0815 0.142555,-0.16584 0.194921,-0.2531 0.05237,-0.0873 0.09116,-0.18135 0.116371,-0.2822 0.02715,-0.1028 0.04073,-0.21917 0.04073,-0.34912 0,-0.16874 -0.02715,-0.32001 -0.08146,-0.45383 -0.0543,-0.13577 -0.131886,-0.25021 -0.232739,-0.34331 -0.100853,-0.0931 -0.224014,-0.16388 -0.369475,-0.21237 -0.143523,-0.0504 -0.305472,-0.0756 -0.485846,-0.0756 -0.01176,0 -0.02318,-2.3e-4 -0.03491,0 z m -0.109581,3.58711 c -0.04497,0.002 -0.08704,0.01 -0.126067,0.0233 -0.04461,0.0136 -0.0834,0.0368 -0.116371,0.0698 -0.03297,0.031 -0.05916,0.0727 -0.07855,0.12512 -0.01939,0.0504 -0.02909,0.11248 -0.02909,0.18617 0,0.0718 0.0097,0.13384 0.02909,0.1862 0.01939,0.0504 0.04558,0.0921 0.07855,0.12511 0.03297,0.033 0.07176,0.0572 0.116371,0.0727 0.04461,0.0155 0.09309,0.0233 0.145461,0.0233 0.05043,0 0.09795,-0.008 0.142555,-0.0233 0.04655,-0.0155 0.08631,-0.0397 0.119279,-0.0727 0.03297,-0.033 0.05915,-0.0747 0.07855,-0.12511 0.01939,-0.0524 0.02909,-0.11444 0.02909,-0.1862 0,-0.0737 -0.0097,-0.13575 -0.02909,-0.18617 -0.0194,-0.0524 -0.04558,-0.0941 -0.07855,-0.12512 -0.03297,-0.033 -0.07273,-0.0562 -0.119279,-0.0698 -0.04461,-0.0155 -0.09213,-0.0233 -0.142555,-0.0233 -0.0065,0 -0.01297,-2.5e-4 -0.01939,0 z" /></g></svg>
