<svg xmlns="http://www.w3.org/2000/svg" width="24" height="24" viewBox="0 0 24 24" focusable="false" aria-hidden="true">
  <path d="M12,0A12,12,0,1,1,0,12,12,12,0,0,1,12,0Zm0,1.0919A10.9081,10.9081,0,1,0,22.9081,12,10.9081,10.9081,0,0,0,12,1.0919Zm-2.4614,8.05a4.1339,4.1339,0,0,1,1.4547.2512,3.5787,3.5787,0,0,1,1.1373.6612l-.529.7009a2.97,2.97,0,0,0-.9786-.5752,3.3068,3.3068,0,0,0-1.1108-.1918,2.0275,2.0275,0,0,0-1.0778.2711.9394.9394,0,0,0-.443.8662.8256.8256,0,0,0,.0859.3967.75.75,0,0,0,.2843.2778,2.2451,2.2451,0,0,0,.5092.2115q.3108.0927.7472.1984.6876.1587,1.1968.324a3.4474,3.4474,0,0,1,.8463.39,1.5058,1.5058,0,0,1,.5026.529,1.5335,1.5335,0,0,1,.1652.7406,1.8332,1.8332,0,0,1-.7405,1.534,3.1982,3.1982,0,0,1-1.9969.5686,5.3552,5.3552,0,0,1-1.64-.2578,4.0432,4.0432,0,0,1-1.3886-.7472l.5026-.78a4.8976,4.8976,0,0,0,1.2166.6943,3.5766,3.5766,0,0,0,1.2828.2314,2.1186,2.1186,0,0,0,1.1968-.2975.9541.9541,0,0,0,.443-.84.7571.7571,0,0,0-.119-.43,1.0015,1.0015,0,0,0-.3571-.3108,2.9146,2.9146,0,0,0-.6083-.238q-.37-.1059-.86-.2249-.6216-.1587-1.0712-.3041a2.9,2.9,0,0,1-.74-.3439,1.2038,1.2038,0,0,1-.4232-.476,1.594,1.594,0,0,1-.1323-.6877,2.0012,2.0012,0,0,1,.205-.9191A1.9374,1.9374,0,0,1,7.6608,9.69a2.5283,2.5283,0,0,1,.84-.41A3.7427,3.7427,0,0,1,9.5386,9.1414ZM17.2749,15.82q-.1059.0528-.2778.1256t-.39.1454a3.4185,3.4185,0,0,1-.476.1191,3.0335,3.0335,0,0,1-.5356.0463,1.7668,1.7668,0,0,1-1.0977-.3505,1.28,1.28,0,0,1-.4628-1.091V10.1729H13.096V9.26h.9389V6.9594h1.1637V9.26h1.5473v.9125H15.1986v4.2847a.722.722,0,0,0,.2513.5554.846.846,0,0,0,.529.1719,1.6949,1.6949,0,0,0,.6281-.1124,2.7466,2.7466,0,0,0,.39-.1785Z" fill="#c22f36" fill-rule="evenodd"/>
</svg>
